<svg width="45" height="28" viewBox="0 0 45 28" fill="none" xmlns="http://www.w3.org/2000/svg">
<path d="M16.4164 2.97412H28.5837V24.8366H16.4164V2.97412Z" fill="#B27BFF"/>
<path d="M17.1888 13.9055C17.1888 9.46353 19.2746 5.52356 22.4805 2.97416C20.1244 1.12013 17.1503 0 13.9057 0C6.21876 0 0 6.21876 0 13.9055C0 21.5921 6.21876 27.811 13.9055 27.811C17.1501 27.811 20.1243 26.6909 22.4805 24.8367C19.2746 22.326 17.1888 18.3475 17.1888 13.9055Z" fill="#9E59FF"/>
<path d="M44.9995 13.9055C44.9995 21.5921 38.7808 27.811 31.094 27.811C27.8494 27.811 24.8752 26.6909 22.519 24.8367C25.7636 22.2874 27.8109 18.3475 27.8109 13.9055C27.8109 9.46353 25.7249 5.52356 22.519 2.97416C24.8751 1.12013 27.8494 0 31.094 0C38.7808 0 44.9997 6.25747 44.9997 13.9055H44.9995Z" fill="#9E59FF"/>
</svg>
